# xmcd CD database file
#
# Track frame offsets:
#	150
#	45150
#	61279
#	74955
#	90027
#	118099
#	145787
#	165092
#	185336
#	210749
#	236360
#	258336
#	276641
#	293937
#	315621
#	335896
#
# Disc length: 4770 seconds
#
# Revision: 0
# Processed by: cddbd v1.5.1PL0 Copyright (c) Steve Scherf et al.
# Submitted via: CDex 1.51
#
DISCID=ed12a010
DTITLE=Silly Walker - Silly Walker BEST：ウラMAX30
DYEAR=2004
DGENRE=Game
TTITLE0=すぺらんかー・Yamajet・梶木 鮪・BLACKHEART・ねこみみ魔法使い/ぐでんぐでんトーク
TTITLE1=BLACKHEART/Tommorow far beyond
TTITLE2=すぺらんかー/少女の檻(Jungle Style)
TTITLE3=shammy/Kirisame -desolate edit-
TTITLE4=酢ぺらんかー/icemint＜やってない
TTITLE5=すぺらんかー/神薙 -satellite style-
TTITLE6=off-beat/ppppu**y (edit)
TTITLE7=908/aquarium (theme of pop'n land remix)
TTITLE8=Yamajet/nullpop
TTITLE9=BLACKHEART/エンカ de パーカッシブ
TTITLE10=すぺらんかー/ELECTRONISM(ese-D'nB)
TTITLE11=梶木 鮪/Kaleidoscope (Version 2.3.1A)
TTITLE12=Yamajet/spark
TTITLE13=すぺらんかー/龍舞〜DRAGON DANCE(TRIBALise)
TTITLE14=YamaDAjet(Yamajet+Spelunker)/I fill (rock you)
TTITLE15=すぺらんかー・Yamajet・梶木 鮪・BLACKHEART・ねこみみ魔法使い/(宅配ピザを待ちながら)ぐでんぐでんエンドトーク
EXTD=YEAR: 2004/08/15
EXTT0=
EXTT1=
EXTT2=
EXTT3=
EXTT4=
EXTT5=
EXTT6=
EXTT7=
EXTT8=
EXTT9=
EXTT10=
EXTT11=
EXTT12=
EXTT13=
EXTT14=
EXTT15=
PLAYORDER=
